#!OML:ASF C:\ViconDB\ViconDB\414\Spring2016\041811\Spring2016.ASF
:FULLY-SPECIFIED
:DEGREES
262
root 11.4962 17.3905 16.8607 -135.25 -73.0297 140.034
lowerback 16.4994 2.13002 4.14599
upperback 1.55828 3.83091 9.29408
thorax -7.99481 1.68065 6.91467
lowerneck 6.65366 -15.6621 -27.2311
upperneck 6.76902 -30.0613 37.533
head 12.3363 -15.317 14.0725
rclavicle -5.56597e-015 -1.01778e-013
rhumerus -1.53564 -31.2577 -14.0499
rradius 57.502
rwrist 15.7194
rhand -52.2661 -22.3816
rfingers 7.12502
rthumb -24.7625 -50.7986
lclavicle -5.56597e-015 -1.01778e-013
lhumerus -5.90021 25.8925 -7.34708
lradius 44.9893
lwrist 5.39975
lhand -44.8301 35.6082
lfingers 7.12502
lthumb -17.6201 64.8298
rfemur 192.071 42.5602 -180.594
rtibia 33.604
rfoot 12.5556 -48.4144
rtoes -25.4781
lfemur -11.2036 1.39278 -15.2552
ltibia 32.8311
lfoot -27.8564 16.8031
ltoes -19.4026
263
root 11.4508 17.3375 16.7376 -136.045 -72.1852 140.761
lowerback 16.7705 2.1748 4.60798
upperback 1.6258 3.97692 9.53758
thorax -8.07253 1.72353 6.88861
lowerneck 6.59905 -15.7066 -27.2952
upperneck 6.62134 -30.1062 37.5935
head 12.3379 -15.3242 14.0748
rclavicle -8.11041e-014 -1.30403e-013
rhumerus -1.31895 -31.1476 -14.4578
rradius 56.9463
rwrist 15.9271
rhand -52.2706 -22.3444
rfingers 7.12502
rthumb -24.7669 -50.7609
lclavicle -8.11041e-014 -1.30403e-013
lhumerus -5.57916 26.0922 -7.74043
lradius 44.9583
lwrist 5.29628
lhand -44.9824 35.5696
lfingers 7.12502
lthumb -17.7667 64.778
rfemur 192.339 43.6442 -179.729
rtibia 34.3876
rfoot 14.0012 -48.9649
rtoes -26.375
lfemur -10.7476 1.87139 -15.2752
ltibia 32.913
lfoot -28.0697 17.0448
ltoes -19.3421
264
root 11.401 17.2692 16.6083 -136.338 -71.2883 140.974
lowerback 16.9859 2.18548 4.99708
upperback 1.67837 4.06349 9.72215
thorax -8.1294 1.74157 6.8528
lowerneck 6.55284 -15.7646 -27.2837
upperneck 6.49983 -30.1645 37.6041
head 12.3219 -15.3325 14.0378
rclavicle -2.22639e-014 -2.54444e-014
rhumerus -1.30294 -30.8757 -14.7741
rradius 56.555
rwrist 15.8799
rhand -52.1931 -22.8315
rfingers 7.12502
rthumb -24.6926 -51.2582
lclavicle -2.22639e-014 -2.54444e-014
lhumerus -5.17986 26.5861 -8.06742
lradius 44.9229
lwrist 5.1648
lhand -45.0423 35.234
lfingers 7.12502
lthumb -17.8243 64.4372
rfemur 193.484 46.3762 -177.508
rtibia 35.2888
rfoot 13.926 -49.9871
rtoes -24.9982
lfemur -10.3494 2.24516 -15.4277
ltibia 33.0809
lfoot -28.273 17.3866
ltoes -19.7377
265
root 11.3473 17.2012 16.4749 -136.843 -70.4934 141.541
lowerback 17.0215 2.18163 5.50822
upperback 1.71524 4.13364 9.9963
thorax -8.09953 1.74601 6.85505
lowerneck 6.50804 -15.7877 -27.3385
upperneck 6.32945 -30.1572 37.6468
head 12.2843 -15.3166 14.0472
rclavicle 4.45278e-014 1.27222e-013
rhumerus -1.17385 -30.5498 -15.1644
rradius 56.3493
rwrist 15.677
rhand -52.0283 -23.3089
rfingers 7.12502
rthumb -24.5347 -51.757
lclavicle 4.45278e-014 1.27222e-013
lhumerus -4.88235 26.994 -8.36866
lradius 44.9527
lwrist 5.19217
lhand -45.2985 35.5594
lfingers 7.12502
lthumb -18.0708 64.7399
rfemur 194.27 47.9531 -175.712
rtibia 36.2617
rfoot 15.4836 -50.8868
rtoes -24.4927
lfemur -10.0406 2.65746 -15.3828
ltibia 33.2595
lfoot -28.6582 17.5736
ltoes -20.1097
266
root 11.2889 17.1247 16.3357 -137.249 -69.6576 141.929
lowerback 17.104 2.16514 6.01098
upperback 1.763 4.18734 10.2574
thorax -8.08112 1.74196 6.85214
lowerneck 6.5152 -15.782 -27.4442
upperneck 6.16775 -30.1556 37.7448
head 12.2703 -15.3146 14.1003
rclavicle -2.8625e-014 1.27222e-014
rhumerus -1.0181 -30.2688 -15.5512
rradius 56.3192
rwrist 15.1563
rhand -51.5266 -23.0402
rfingers 7.12502
rthumb -24.0537 -51.5528
lclavicle -2.8625e-014 1.27222e-014
lhumerus -4.6002 27.2259 -8.68429
lradius 44.9853
lwrist 5.68136
lhand -45.7989 34.7
lfingers 7.12502
lthumb -18.5523 63.8353
rfemur 195.014 49.526 -173.829
rtibia 37.3074
rfoot 16.9755 -51.9834
rtoes -23.8821
lfemur -9.66731 2.93302 -15.4078
ltibia 33.5133
lfoot -28.996 17.9247
ltoes -20.5188
